<svg width="17" height="17" viewBox="0 0 17 17" fill="none" xmlns="http://www.w3.org/2000/svg">
<path d="M4.9513 7.83334H12.6493C13.224 7.83334 13.5293 7.15335 13.1473 6.72335L9.29864 2.39335C9.23621 2.32288 9.15954 2.26647 9.07369 2.22783C8.98785 2.1892 8.89478 2.16922 8.80064 2.16922C8.7065 2.16922 8.61343 2.1892 8.52758 2.22783C8.44174 2.26647 8.36507 2.32288 8.30264 2.39335L4.45264 6.72335C4.07064 7.15335 4.37597 7.83334 4.9513 7.83334ZM8.30197 14.606C8.3644 14.6765 8.44107 14.7329 8.52692 14.7715C8.61276 14.8102 8.70583 14.8301 8.79997 14.8301C8.89411 14.8301 8.98718 14.8102 9.07303 14.7715C9.15887 14.7329 9.23554 14.6765 9.29797 14.606L13.1466 10.276C13.5293 9.84668 13.224 9.16668 12.6486 9.16668H4.9513C4.37664 9.16668 4.0713 9.84668 4.4533 10.2767L8.30197 14.606Z" fill="#9E9E9E"/>
</svg>
